<mxfile host="app.diagrams.net" agent="Mozilla/5.0 (Windows NT 10.0; Win64; x64) AppleWebKit/537.36 (KHTML, like Gecko) Chrome/129.0.0.0 Safari/537.36" version="24.7.17">
  <diagram name="Page-1" id="SNU2_Zsc9V32e5ePePQ4">
    <mxGraphModel dx="880" dy="474" grid="1" gridSize="10" guides="1" tooltips="1" connect="1" arrows="1" fold="1" page="1" pageScale="1" pageWidth="850" pageHeight="1100" math="0" shadow="0">
      <root>
        <mxCell id="0" />
        <mxCell id="1" parent="0" />
        <mxCell id="2" value="Frontend Layer" style="whiteSpace=wrap;strokeWidth=2;verticalAlign=top;" parent="1" vertex="1">
          <mxGeometry x="8" y="8" width="419" height="218" as="geometry" />
        </mxCell>
        <mxCell id="3" value="Client/Browser" style="whiteSpace=wrap;strokeWidth=2;" parent="2" vertex="1">
          <mxGeometry x="46" y="93" width="169" height="49" as="geometry" />
        </mxCell>
        <mxCell id="4" value="HTML" style="whiteSpace=wrap;strokeWidth=2;" parent="2" vertex="1">
          <mxGeometry x="290" y="43" width="100" height="49" as="geometry" />
        </mxCell>
        <mxCell id="5" value="CSS" style="whiteSpace=wrap;strokeWidth=2;" parent="2" vertex="1">
          <mxGeometry x="297" y="142" width="85" height="49" as="geometry" />
        </mxCell>
        <mxCell id="6" value="" style="curved=1;startArrow=none;endArrow=block;exitX=0.85;exitY=-0.01;entryX=0;entryY=0.5;" parent="2" source="3" target="4" edge="1">
          <mxGeometry relative="1" as="geometry">
            <Array as="points">
              <mxPoint x="252" y="68" />
            </Array>
          </mxGeometry>
        </mxCell>
        <mxCell id="7" value="" style="curved=1;startArrow=none;endArrow=block;exitX=0.85;exitY=0.99;entryX=0;entryY=0.5;" parent="2" source="3" target="5" edge="1">
          <mxGeometry relative="1" as="geometry">
            <Array as="points">
              <mxPoint x="252" y="167" />
            </Array>
          </mxGeometry>
        </mxCell>
      </root>
    </mxGraphModel>
  </diagram>
</mxfile>
